<svg enable-background="new 0 0 32 32" height="32" viewBox="0 0 32 32" width="32" xmlns="http://www.w3.org/2000/svg"><g fill="#828282"><path d="m16-.034c-8.841 0-16.035 7.192-16.035 16.034s7.194 16.034 16.035 16.034 16.035-7.192 16.035-16.034-7.194-16.034-16.035-16.034zm0 31c-8.252 0-14.965-6.714-14.965-14.966s6.713-14.966 14.965-14.966 14.965 6.714 14.965 14.966-6.713 14.966-14.965 14.966z"/><path d="m24.794 11.046c.11-.204.202-.419.273-.643.067-.212-.002-.442-.176-.581-.173-.138-.415-.154-.605-.042-.513.305-1.065.53-1.646.673-.698-.631-1.615-.987-2.562-.987-2.105 0-3.817 1.712-3.817 3.815 0 .053.001.105.003.158-2.235-.279-4.298-1.415-5.735-3.178-.11-.136-.28-.207-.456-.195-.175.014-.332.112-.42.265-.338.58-.517 1.243-.517 1.919 0 .64.159 1.256.451 1.802-.074.012-.147.039-.214.078-.163.097-.264.292-.264.481 0 1.135.505 2.177 1.319 2.885-.012.011-.023.023-.035.035-.125.142-.166.338-.108.518.351 1.094 1.164 1.946 2.184 2.365-1.041.515-2.25.716-3.406.579-.244-.022-.481.116-.566.352-.083.234.005.495.215.63 1.592 1.02 3.431 1.559 5.319 1.559 6.18 0 9.874-5.02 9.874-9.873 0-.055 0-.109-.001-.164.597-.466 1.115-1.023 1.541-1.66.132-.197.118-.459-.035-.641-.151-.179-.4-.241-.616-.15zm-1.745 1.755c-.147.106-.231.279-.222.461.006.132.009.266.009.398 0 4.328-3.293 8.805-8.804 8.805-.989 0-1.964-.166-2.887-.488 1.105-.211 2.141-.682 3.045-1.39.178-.14.249-.376.177-.591-.072-.214-.271-.36-.497-.364-.891-.018-1.699-.461-2.194-1.162.253-.017.501-.059.742-.124.239-.065.401-.286.393-.534-.008-.247-.186-.457-.429-.506-1.003-.201-1.79-.943-2.081-1.905.266.067.539.106.812.115.235-.001.453-.145.526-.371s-.013-.475-.212-.607c-.765-.512-1.222-1.366-1.222-2.287 0-.223.027-.443.079-.658 1.731 1.775 4.08 2.847 6.568 2.972.176.001.33-.062.437-.191s.148-.3.11-.464c-.047-.203-.071-.414-.071-.627 0-1.515 1.233-2.747 2.748-2.747.757 0 1.488.316 2.005.868.126.135.312.194.494.159.165-.033.328-.071.489-.115-.072.054-.147.104-.226.151-.216.129-.312.393-.231.631s.324.394.569.357c.061-.007.121-.015.182-.023-.099.082-.203.161-.309.237z"/></g></svg>